<svg class="main-svg" xmlns="http://www.w3.org/2000/svg" xmlns:xlink="http://www.w3.org/1999/xlink" width="700" height="500" style="" viewBox="0 0 700 500"><rect x="0" y="0" width="700" height="500" style="fill: rgb(255, 255, 255); fill-opacity: 1;"/><defs id="defs-5daf6c"><g class="clips"><clipPath id="clip5daf6cxyplot" class="plotclip"><rect width="609" height="331"/></clipPath><clipPath class="axesclip" id="clip5daf6cx"><rect x="71" y="0" width="609" height="500"/></clipPath><clipPath class="axesclip" id="clip5daf6cy"><rect x="0" y="60" width="700" height="331"/></clipPath><clipPath class="axesclip" id="clip5daf6cxy"><rect x="71" y="60" width="609" height="331"/></clipPath></g><g class="gradients"/><g class="patterns"/></defs><g class="bglayer"/><g class="layer-below"><g class="imagelayer"/><g class="shapelayer"/></g><g class="cartesianlayer"><g class="subplot xy"><g class="layer-subplot"><g class="shapelayer"/><g class="imagelayer"/></g><g class="minor-gridlayer"><g class="x"/><g class="y"/></g><g class="gridlayer"><g class="x"><path class="xgrid crisp" transform="translate(91.03,0)" d="M0,60v331" style="stroke: rgb(255, 255, 255); stroke-opacity: 1; stroke-width: 1px;"/><path class="xgrid crisp" transform="translate(111.07,0)" d="M0,60v331" style="stroke: rgb(255, 255, 255); stroke-opacity: 1; stroke-width: 1px;"/><path class="xgrid crisp" transform="translate(131.1,0)" d="M0,60v331" style="stroke: rgb(255, 255, 255); stroke-opacity: 1; stroke-width: 1px;"/><path class="xgrid crisp" transform="translate(151.13,0)" d="M0,60v331" style="stroke: rgb(255, 255, 255); stroke-opacity: 1; stroke-width: 1px;"/><path class="xgrid crisp" transform="translate(171.16,0)" d="M0,60v331" style="stroke: rgb(255, 255, 255); stroke-opacity: 1; stroke-width: 1px;"/><path class="xgrid crisp" transform="translate(191.2,0)" d="M0,60v331" style="stroke: rgb(255, 255, 255); stroke-opacity: 1; stroke-width: 1px;"/><path class="xgrid crisp" transform="translate(211.23,0)" d="M0,60v331" style="stroke: rgb(255, 255, 255); stroke-opacity: 1; stroke-width: 1px;"/><path class="xgrid crisp" transform="translate(231.26,0)" d="M0,60v331" style="stroke: rgb(255, 255, 255); stroke-opacity: 1; stroke-width: 1px;"/><path class="xgrid crisp" transform="translate(251.3,0)" d="M0,60v331" style="stroke: rgb(255, 255, 255); stroke-opacity: 1; stroke-width: 1px;"/><path class="xgrid crisp" transform="translate(271.33000000000004,0)" d="M0,60v331" style="stroke: rgb(255, 255, 255); stroke-opacity: 1; stroke-width: 1px;"/><path class="xgrid crisp" transform="translate(291.36,0)" d="M0,60v331" style="stroke: rgb(255, 255, 255); stroke-opacity: 1; stroke-width: 1px;"/><path class="xgrid crisp" transform="translate(311.39,0)" d="M0,60v331" style="stroke: rgb(255, 255, 255); stroke-opacity: 1; stroke-width: 1px;"/><path class="xgrid crisp" transform="translate(331.43,0)" d="M0,60v331" style="stroke: rgb(255, 255, 255); stroke-opacity: 1; stroke-width: 1px;"/><path class="xgrid crisp" transform="translate(351.46,0)" d="M0,60v331" style="stroke: rgb(255, 255, 255); stroke-opacity: 1; stroke-width: 1px;"/><path class="xgrid crisp" transform="translate(371.49,0)" d="M0,60v331" style="stroke: rgb(255, 255, 255); stroke-opacity: 1; stroke-width: 1px;"/><path class="xgrid crisp" transform="translate(391.53,0)" d="M0,60v331" style="stroke: rgb(255, 255, 255); stroke-opacity: 1; stroke-width: 1px;"/><path class="xgrid crisp" transform="translate(411.56,0)" d="M0,60v331" style="stroke: rgb(255, 255, 255); stroke-opacity: 1; stroke-width: 1px;"/><path class="xgrid crisp" transform="translate(431.59,0)" d="M0,60v331" style="stroke: rgb(255, 255, 255); stroke-opacity: 1; stroke-width: 1px;"/><path class="xgrid crisp" transform="translate(451.63,0)" d="M0,60v331" style="stroke: rgb(255, 255, 255); stroke-opacity: 1; stroke-width: 1px;"/><path class="xgrid crisp" transform="translate(471.66,0)" d="M0,60v331" style="stroke: rgb(255, 255, 255); stroke-opacity: 1; stroke-width: 1px;"/><path class="xgrid crisp" transform="translate(491.69,0)" d="M0,60v331" style="stroke: rgb(255, 255, 255); stroke-opacity: 1; stroke-width: 1px;"/><path class="xgrid crisp" transform="translate(511.72,0)" d="M0,60v331" style="stroke: rgb(255, 255, 255); stroke-opacity: 1; stroke-width: 1px;"/><path class="xgrid crisp" transform="translate(531.76,0)" d="M0,60v331" style="stroke: rgb(255, 255, 255); stroke-opacity: 1; stroke-width: 1px;"/><path class="xgrid crisp" transform="translate(551.79,0)" d="M0,60v331" style="stroke: rgb(255, 255, 255); stroke-opacity: 1; stroke-width: 1px;"/><path class="xgrid crisp" transform="translate(571.8199999999999,0)" d="M0,60v331" style="stroke: rgb(255, 255, 255); stroke-opacity: 1; stroke-width: 1px;"/><path class="xgrid crisp" transform="translate(591.86,0)" d="M0,60v331" style="stroke: rgb(255, 255, 255); stroke-opacity: 1; stroke-width: 1px;"/><path class="xgrid crisp" transform="translate(611.89,0)" d="M0,60v331" style="stroke: rgb(255, 255, 255); stroke-opacity: 1; stroke-width: 1px;"/><path class="xgrid crisp" transform="translate(631.92,0)" d="M0,60v331" style="stroke: rgb(255, 255, 255); stroke-opacity: 1; stroke-width: 1px;"/><path class="xgrid crisp" transform="translate(651.95,0)" d="M0,60v331" style="stroke: rgb(255, 255, 255); stroke-opacity: 1; stroke-width: 1px;"/><path class="xgrid crisp" transform="translate(671.99,0)" d="M0,60v331" style="stroke: rgb(255, 255, 255); stroke-opacity: 1; stroke-width: 1px;"/></g><g class="y"><path class="ygrid crisp" transform="translate(0,330.78)" d="M71,0h609" style="stroke: rgb(255, 255, 255); stroke-opacity: 1; stroke-width: 1px;"/><path class="ygrid crisp" transform="translate(0,270.96000000000004)" d="M71,0h609" style="stroke: rgb(255, 255, 255); stroke-opacity: 1; stroke-width: 1px;"/><path class="ygrid crisp" transform="translate(0,211.14)" d="M71,0h609" style="stroke: rgb(255, 255, 255); stroke-opacity: 1; stroke-width: 1px;"/><path class="ygrid crisp" transform="translate(0,151.32)" d="M71,0h609" style="stroke: rgb(255, 255, 255); stroke-opacity: 1; stroke-width: 1px;"/><path class="ygrid crisp" transform="translate(0,91.5)" d="M71,0h609" style="stroke: rgb(255, 255, 255); stroke-opacity: 1; stroke-width: 1px;"/></g></g><g class="zerolinelayer"><path class="yzl zl crisp" transform="translate(0,390.6)" d="M71,0h609" style="stroke: rgb(255, 255, 255); stroke-opacity: 1; stroke-width: 2px;"/></g><g class="layer-between"><g class="shapelayer"/><g class="imagelayer"/></g><path class="xlines-below"/><path class="ylines-below"/><g class="overlines-below"/><g class="xaxislayer-below"/><g class="yaxislayer-below"/><g class="overaxes-below"/><g class="overplot"><g class="xy" transform="translate(71,60)" clip-path="url(#clip5daf6cxyplot)"><g class="scatterlayer mlayer"><g class="trace scatter trace580179" style="stroke-miterlimit: 2; opacity: 1;"><g class="fills"/><g class="errorbars"/><g class="lines"><path class="js-line" d="M0,179.26Q1.17,153.12 4.01,151.44C5.12,150.79 6.9,153.62 8.01,152.94C11.15,151.02 10.9,118.79 12.02,118.84C14.13,118.93 13.63,240.72 16.03,240.87C17.14,240.94 18.87,225.39 20.03,215.15C21.73,200.17 20.64,160.68 24.04,159.52C25.15,159.14 26.94,161.61 28.05,164C30.47,169.21 30.82,192.45 32.05,192.42C33.53,192.39 34.93,151.4 36.06,151.44C38.05,151.51 38.54,279.74 40.07,279.75C41.28,279.76 41.88,200.06 44.07,199.9C45.18,199.82 46.97,220.31 48.08,220.23C50.28,220.07 47.27,142.24 52.09,139.48C53.23,138.83 54.97,139.87 56.09,141.57C59.93,147.4 58.98,194.54 60.1,194.51C62.16,194.46 62.77,16.55 64.11,16.55C65.44,16.55 66.3,147.64 68.11,193.32C69.26,222.26 70.65,242.61 72.12,264.2C73.36,282.39 74.88,314.46 76.13,314.45C77.58,314.44 78.8,269.43 80.13,246.85C81.47,224.17 82.7,199.75 84.14,178.66C85.39,160.38 86.79,127.51 88.14,127.51C89.46,127.51 90.99,176 92.15,175.97C93.87,175.93 94.76,69.79 96.16,69.79C97.44,69.79 98.92,126.99 100.16,159.22C101.62,197.14 98.41,280.26 104.17,283.04C105.33,283.6 107.03,282.23 108.18,280.05C113.41,270.1 109.16,176.65 112.18,176.27C113.29,176.13 115.06,189.84 116.19,189.73C118.19,189.53 118.5,145.55 120.2,145.46C121.36,145.4 123.02,157.87 124.2,165.8C125.83,176.77 127.06,205.31 128.21,205.28C129.97,205.23 128.12,114.36 132.22,113.16C133.35,112.83 135.11,119.11 136.22,118.84C138.54,118.27 138.95,88.61 140.23,88.63C141.64,88.65 143.12,109.36 144.24,125.72C146.4,157.45 145.81,236.81 148.24,266C149.35,279.34 151.13,295.06 152.25,295.01C154.34,294.91 154.55,220.44 156.26,193.02C157.42,174.45 158.97,146.35 160.26,146.36C161.65,146.37 161.94,189.14 164.27,200.49C165.38,205.9 167.13,212.27 168.28,212.16C170.06,211.99 171.11,194.36 172.28,182.85C173.94,166.51 175.14,123.31 176.29,123.33C178.07,123.36 178.02,234.99 180.3,266C181.41,281.08 183.17,299.54 184.3,299.5C186.21,299.43 186.8,232.53 188.31,204.08C189.53,181.04 190.67,158.83 192.32,141.57C193.49,129.3 195.13,122.11 196.32,110.17C197.9,94.4 199.11,55.11 200.33,55.13C201.85,55.15 203.11,109.65 204.34,140.97C205.83,178.8 205.91,266.15 208.34,266.3C209.45,266.37 211.19,240.52 212.35,240.57C214.08,240.64 215.17,298.02 216.36,298C217.95,297.98 218.93,227.23 220.36,195.11C221.62,166.8 222.65,115.3 224.37,115.25C225.53,115.22 227.14,138.47 228.38,151.74C229.86,167.61 230.28,192.16 232.38,204.08C233.5,210.44 235.27,212.09 236.39,218.44C238.48,230.32 239.18,270.5 240.39,270.48C241.93,270.46 242.35,205.7 244.4,185.84C245.52,174.96 247.04,160.72 248.41,160.71C249.71,160.7 250.04,182.21 252.41,183.15C253.52,183.59 255.28,179.62 256.42,180.16C261.23,182.44 258.58,246.48 260.43,268.99C261.57,282.85 263.29,302.53 264.43,302.49C266.31,302.42 266.78,235.79 268.44,210.36C269.61,192.36 271.04,178.88 272.45,164.3C273.72,151.1 275.23,126.6 276.45,126.62C277.96,126.65 278.46,170.87 280.46,184.64C281.59,192.38 283.32,202.66 284.47,202.59C286.26,202.47 287.31,158.29 288.47,158.32C290.19,158.36 290.77,230.19 292.48,256.72C293.64,274.78 295.33,302.22 296.49,302.19C298.2,302.15 298.99,233.13 300.49,203.49C301.72,179.16 302.86,137.14 304.5,137.09C305.68,137.06 306.75,162.53 308.51,171.48C309.66,177.35 310.59,185.23 312.51,185.84C313.64,186.2 315.38,182.04 316.52,182.55C321.12,184.6 318.55,247.06 320.53,267.49C321.66,279.11 323.4,294.76 324.53,294.71C326.45,294.62 327.03,239.25 328.54,215.75C329.76,196.76 330.47,164.5 332.55,164.3C333.67,164.19 335,174.62 336.55,178.66C337.76,181.8 339.44,182.38 340.56,186.74C344.2,200.92 343.11,282.14 344.57,282.15C345.81,282.16 347.26,213.65 348.57,213.65C349.93,213.65 350.53,270.48 352.58,287.83C353.7,297.31 355.48,309.74 356.59,309.66C359.02,309.48 359.06,234.58 360.59,203.19C361.8,178.27 362.15,149.82 364.6,136.19C365.71,130.02 367.5,122.88 368.61,123.03C371.98,123.48 368.69,230.95 372.61,248.95C373.73,254.11 375.51,258.71 376.62,258.52C379.49,258.03 379.18,210.26 380.63,188.83C381.88,170.46 383.29,137.68 384.63,137.68C385.96,137.68 386.71,187.78 388.64,187.93C389.77,188.02 391.52,178.44 392.64,171.18C394.66,158.15 395.5,115.82 396.65,115.85C398.47,115.89 396.74,235.71 400.66,255.83C401.78,261.59 403.55,266.75 404.66,266.59C407.16,266.23 407.43,229.22 408.67,207.97C410.14,182.68 411.27,151.13 412.68,124.82C413.95,101.04 414.97,56.99 416.68,56.93C417.84,56.89 419.48,76.33 420.69,88.03C422.24,103.08 422.49,128.48 424.7,139.78C425.81,145.48 427.59,146.09 428.7,152.34C431.67,169.14 431.04,221.35 432.71,247.45C433.88,265.76 435.5,294.13 436.72,294.11C438.22,294.09 439.43,247.86 440.72,223.52C442.1,197.44 440.06,144.81 444.73,142.47C445.87,141.9 447.5,143.98 448.74,145.16C450.2,146.56 451.6,147.27 452.74,150.55C457.69,164.76 455.36,276.76 456.75,276.76C458.04,276.76 459.35,169.1 460.76,169.09C462.04,169.09 462.87,235.74 464.76,257.92C465.9,271.28 467.64,289.97 468.77,289.92C470.78,289.83 467.88,198.01 472.78,187.03C473.92,184.47 475.66,185.62 476.78,183.15C480.85,174.22 479.42,110.17 480.79,110.17C482.1,110.17 482.94,176.18 484.8,176.27C485.94,176.33 487.69,151.67 488.8,151.74C491.36,151.91 491.4,284.84 492.81,284.84C494.08,284.84 492.51,177.74 496.82,176.57C497.95,176.26 499.71,183.13 500.82,182.85C503.83,182.09 503.12,128.18 504.83,128.11C505.99,128.06 507.73,141.76 508.84,153.24C511.21,177.72 510.45,244.72 512.84,268.99C513.95,280.23 515.74,293.58 516.85,293.51C519.08,293.37 519.38,224.08 520.86,193.91C522.09,168.77 520.82,133.2 524.86,124.82C525.99,122.48 527.74,123.1 528.87,121.23C530.85,117.94 531.76,104.96 532.88,105.08C536.61,105.5 535.38,289.91 536.88,289.92C538.11,289.93 539.26,166.12 540.89,166.1C542.07,166.08 543.28,212.5 544.89,230.7C546.08,244.07 547.76,265.44 548.9,265.4C550.73,265.34 551.68,208.37 552.91,175.67C554.4,136.26 555.36,45.28 556.91,45.26C558.12,45.25 559.54,124.22 560.92,124.22C562.22,124.22 563.42,54.26 564.93,54.24C566.15,54.22 567.81,80.05 568.93,99.4C570.94,134.01 571.04,244.41 572.94,244.46C574.08,244.49 574.96,205.03 576.95,192.72C578.07,185.75 579.49,181.45 580.95,176.57C582.19,172.42 583.85,170.81 584.96,165.2C587.79,150.9 587.44,86.86 588.97,86.84C590.18,86.82 591.39,135.54 592.97,135.59C594.16,135.63 595.87,108.01 596.98,108.07C599.44,108.21 599.23,208.58 600.99,244.46C602.14,267.89 603.81,302.51 604.99,302.49Q606.63,302.46 609,190.33" style="vector-effect: none; fill: none; stroke: rgb(99, 110, 250); stroke-opacity: 1; stroke-width: 2px; opacity: 1;"/></g><g class="points"/><g class="text"/></g></g></g></g><path class="xlines-above crisp" d="M0,0" style="fill: none;"/><path class="ylines-above crisp" d="M0,0" style="fill: none;"/><g class="overlines-above"/><g class="xaxislayer-above"><g class="xtick"><text text-anchor="start" x="0" y="406" transform="translate(71,0) rotate(90,0,399)" style="font-family: Arial; font-size: 14px; fill: rgb(42, 63, 95); fill-opacity: 1; white-space: pre; opacity: 1;">5/1/2024</text></g><g class="xtick"><text text-anchor="start" x="0" y="406" transform="translate(91.03,0) rotate(90,0,399)" style="font-family: Arial; font-size: 14px; fill: rgb(42, 63, 95); fill-opacity: 1; white-space: pre; opacity: 1;">5/14/2024</text></g><g class="xtick"><text text-anchor="start" x="0" y="406" transform="translate(111.07,0) rotate(90,0,399)" style="font-family: Arial; font-size: 14px; fill: rgb(42, 63, 95); fill-opacity: 1; white-space: pre; opacity: 1;">5/19/2024</text></g><g class="xtick"><text text-anchor="start" x="0" y="406" transform="translate(131.1,0) rotate(90,0,399)" style="font-family: Arial; font-size: 14px; fill: rgb(42, 63, 95); fill-opacity: 1; white-space: pre; opacity: 1;">5/23/2024</text></g><g class="xtick"><text text-anchor="start" x="0" y="406" transform="translate(151.13,0) rotate(90,0,399)" style="font-family: Arial; font-size: 14px; fill: rgb(42, 63, 95); fill-opacity: 1; white-space: pre; opacity: 1;">5/28/2024</text></g><g class="xtick"><text text-anchor="start" x="0" y="406" transform="translate(171.16,0) rotate(90,0,399)" style="font-family: Arial; font-size: 14px; fill: rgb(42, 63, 95); fill-opacity: 1; white-space: pre; opacity: 1;">5/4/2024</text></g><g class="xtick"><text text-anchor="start" x="0" y="406" transform="translate(191.2,0) rotate(90,0,399)" style="font-family: Arial; font-size: 14px; fill: rgb(42, 63, 95); fill-opacity: 1; white-space: pre; opacity: 1;">5/9/2024</text></g><g class="xtick"><text text-anchor="start" x="0" y="406" transform="translate(211.23,0) rotate(90,0,399)" style="font-family: Arial; font-size: 14px; fill: rgb(42, 63, 95); fill-opacity: 1; white-space: pre; opacity: 1;">6/13/2024</text></g><g class="xtick"><text text-anchor="start" x="0" y="406" transform="translate(231.26,0) rotate(90,0,399)" style="font-family: Arial; font-size: 14px; fill: rgb(42, 63, 95); fill-opacity: 1; white-space: pre; opacity: 1;">6/18/2024</text></g><g class="xtick"><text text-anchor="start" x="0" y="406" transform="translate(251.3,0) rotate(90,0,399)" style="font-family: Arial; font-size: 14px; fill: rgb(42, 63, 95); fill-opacity: 1; white-space: pre; opacity: 1;">6/22/2024</text></g><g class="xtick"><text text-anchor="start" x="0" y="406" transform="translate(271.33000000000004,0) rotate(90,0,399)" style="font-family: Arial; font-size: 14px; fill: rgb(42, 63, 95); fill-opacity: 1; white-space: pre; opacity: 1;">6/27/2024</text></g><g class="xtick"><text text-anchor="start" x="0" y="406" transform="translate(291.36,0) rotate(90,0,399)" style="font-family: Arial; font-size: 14px; fill: rgb(42, 63, 95); fill-opacity: 1; white-space: pre; opacity: 1;">6/4/2024</text></g><g class="xtick"><text text-anchor="start" x="0" y="406" transform="translate(311.39,0) rotate(90,0,399)" style="font-family: Arial; font-size: 14px; fill: rgb(42, 63, 95); fill-opacity: 1; white-space: pre; opacity: 1;">6/9/2024</text></g><g class="xtick"><text text-anchor="start" x="0" y="406" transform="translate(331.43,0) rotate(90,0,399)" style="font-family: Arial; font-size: 14px; fill: rgb(42, 63, 95); fill-opacity: 1; white-space: pre; opacity: 1;">7/13/2024</text></g><g class="xtick"><text text-anchor="start" x="0" y="406" transform="translate(351.46,0) rotate(90,0,399)" style="font-family: Arial; font-size: 14px; fill: rgb(42, 63, 95); fill-opacity: 1; white-space: pre; opacity: 1;">7/18/2024</text></g><g class="xtick"><text text-anchor="start" x="0" y="406" transform="translate(371.49,0) rotate(90,0,399)" style="font-family: Arial; font-size: 14px; fill: rgb(42, 63, 95); fill-opacity: 1; white-space: pre; opacity: 1;">7/22/2024</text></g><g class="xtick"><text text-anchor="start" x="0" y="406" transform="translate(391.53,0) rotate(90,0,399)" style="font-family: Arial; font-size: 14px; fill: rgb(42, 63, 95); fill-opacity: 1; white-space: pre; opacity: 1;">7/27/2024</text></g><g class="xtick"><text text-anchor="start" x="0" y="406" transform="translate(411.56,0) rotate(90,0,399)" style="font-family: Arial; font-size: 14px; fill: rgb(42, 63, 95); fill-opacity: 1; white-space: pre; opacity: 1;">7/31/2024</text></g><g class="xtick"><text text-anchor="start" x="0" y="406" transform="translate(431.59,0) rotate(90,0,399)" style="font-family: Arial; font-size: 14px; fill: rgb(42, 63, 95); fill-opacity: 1; white-space: pre; opacity: 1;">7/8/2024</text></g><g class="xtick"><text text-anchor="start" x="0" y="406" transform="translate(451.63,0) rotate(90,0,399)" style="font-family: Arial; font-size: 14px; fill: rgb(42, 63, 95); fill-opacity: 1; white-space: pre; opacity: 1;">8/12/2024</text></g><g class="xtick"><text text-anchor="start" x="0" y="406" transform="translate(471.66,0) rotate(90,0,399)" style="font-family: Arial; font-size: 14px; fill: rgb(42, 63, 95); fill-opacity: 1; white-space: pre; opacity: 1;">8/17/2024</text></g><g class="xtick"><text text-anchor="start" x="0" y="406" transform="translate(491.69,0) rotate(90,0,399)" style="font-family: Arial; font-size: 14px; fill: rgb(42, 63, 95); fill-opacity: 1; white-space: pre; opacity: 1;">8/21/2024</text></g><g class="xtick"><text text-anchor="start" x="0" y="406" transform="translate(511.72,0) rotate(90,0,399)" style="font-family: Arial; font-size: 14px; fill: rgb(42, 63, 95); fill-opacity: 1; white-space: pre; opacity: 1;">8/26/2024</text></g><g class="xtick"><text text-anchor="start" x="0" y="406" transform="translate(531.76,0) rotate(90,0,399)" style="font-family: Arial; font-size: 14px; fill: rgb(42, 63, 95); fill-opacity: 1; white-space: pre; opacity: 1;">8/30/2024</text></g><g class="xtick"><text text-anchor="start" x="0" y="406" transform="translate(551.79,0) rotate(90,0,399)" style="font-family: Arial; font-size: 14px; fill: rgb(42, 63, 95); fill-opacity: 1; white-space: pre; opacity: 1;">8/7/2024</text></g><g class="xtick"><text text-anchor="start" x="0" y="406" transform="translate(571.8199999999999,0) rotate(90,0,399)" style="font-family: Arial; font-size: 14px; fill: rgb(42, 63, 95); fill-opacity: 1; white-space: pre; opacity: 1;">9/11/2024</text></g><g class="xtick"><text text-anchor="start" x="0" y="406" transform="translate(591.86,0) rotate(90,0,399)" style="font-family: Arial; font-size: 14px; fill: rgb(42, 63, 95); fill-opacity: 1; white-space: pre; opacity: 1;">9/16/2024</text></g><g class="xtick"><text text-anchor="start" x="0" y="406" transform="translate(611.89,0) rotate(90,0,399)" style="font-family: Arial; font-size: 14px; fill: rgb(42, 63, 95); fill-opacity: 1; white-space: pre; opacity: 1;">9/20/2024</text></g><g class="xtick"><text text-anchor="start" x="0" y="406" transform="translate(631.92,0) rotate(90,0,399)" style="font-family: Arial; font-size: 14px; fill: rgb(42, 63, 95); fill-opacity: 1; white-space: pre; opacity: 1;">9/25/2024</text></g><g class="xtick"><text text-anchor="start" x="0" y="406" transform="translate(651.95,0) rotate(90,0,399)" style="font-family: Arial; font-size: 14px; fill: rgb(42, 63, 95); fill-opacity: 1; white-space: pre; opacity: 1;">9/3/2024</text></g><g class="xtick"><text text-anchor="start" x="0" y="406" transform="translate(671.99,0) rotate(90,0,399)" style="font-family: Arial; font-size: 14px; fill: rgb(42, 63, 95); fill-opacity: 1; white-space: pre; opacity: 1;">9/7/2024</text></g></g><g class="yaxislayer-above"><g class="ytick"><text text-anchor="end" x="70" y="4.8999999999999995" transform="translate(0,390.6)" style="font-family: Arial; font-size: 14px; fill: rgb(42, 63, 95); fill-opacity: 1; white-space: pre; opacity: 1;">0</text></g><g class="ytick"><text text-anchor="end" x="70" y="4.8999999999999995" style="font-family: Arial; font-size: 14px; fill: rgb(42, 63, 95); fill-opacity: 1; white-space: pre; opacity: 1;" transform="translate(0,330.78)">200</text></g><g class="ytick"><text text-anchor="end" x="70" y="4.8999999999999995" style="font-family: Arial; font-size: 14px; fill: rgb(42, 63, 95); fill-opacity: 1; white-space: pre; opacity: 1;" transform="translate(0,270.96000000000004)">400</text></g><g class="ytick"><text text-anchor="end" x="70" y="4.8999999999999995" style="font-family: Arial; font-size: 14px; fill: rgb(42, 63, 95); fill-opacity: 1; white-space: pre; opacity: 1;" transform="translate(0,211.14)">600</text></g><g class="ytick"><text text-anchor="end" x="70" y="4.8999999999999995" style="font-family: Arial; font-size: 14px; fill: rgb(42, 63, 95); fill-opacity: 1; white-space: pre; opacity: 1;" transform="translate(0,151.32)">800</text></g><g class="ytick"><text text-anchor="end" x="70" y="4.8999999999999995" style="font-family: Arial; font-size: 14px; fill: rgb(42, 63, 95); fill-opacity: 1; white-space: pre; opacity: 1;" transform="translate(0,91.5)">1000</text></g></g><g class="overaxes-above"/></g></g><g class="polarlayer"/><g class="smithlayer"/><g class="ternarylayer"/><g class="geolayer"/><g class="funnelarealayer"/><g class="pielayer"/><g class="iciclelayer"/><g class="treemaplayer"/><g class="sunburstlayer"/><g class="glimages"/><defs id="topdefs-5daf6c"><g class="clips"/></defs><g class="layer-above"><g class="imagelayer"/><g class="shapelayer"/></g><g class="infolayer"><g class="g-gtitle"><text class="gtitle" x="35" y="30" text-anchor="start" dy="0em" style="opacity: 1; font-family: Arial; font-size: 20px; fill: rgb(42, 63, 95); fill-opacity: 1; white-space: pre;">Job Posting Trends Over Time</text></g><g class="g-xtitle"><text class="xtitle" x="375.5" y="487.696875" text-anchor="middle" style="opacity: 1; font-family: Arial; font-size: 17px; fill: rgb(42, 63, 95); fill-opacity: 1; white-space: pre;">Date</text></g><g class="g-ytitle"><text class="ytitle" transform="rotate(-90,18.393749999999997,225.5)" x="18.393749999999997" y="225.5" text-anchor="middle" style="opacity: 1; font-family: Arial; font-size: 17px; fill: rgb(42, 63, 95); fill-opacity: 1; white-space: pre;">Number of Job Postings</text></g></g></svg>